# xmcd
#
# Track frame offsets:
#	150
#	59597
#	85350
#	128762
#	167432
#
# Disc length: 2674 seconds
#
# Revision: 3
# Processed by: cddbd v1.4PL0 Copyright (c) Steve Scherf et al.
# Submitted via: CDmax 1.8
#
DISCID=3b0a7005
DTITLE=Derek and The Dominos - Garage
DYEAR=1970
DGENRE=Blues
TTITLE0=Got To Get Better In A Little While
TTITLE1=Roll It Over
TTITLE2=Blues Power
TTITLE3=Stormy Monday
TTITLE4=Chuck Berry Medley: Hey Little Queenie - Sweet Little Rock'n Roller
EXTD=
EXTT0=
EXTT1=
EXTT2=
EXTT3=
EXTT4=
PLAYORDER=
